<?xml version="1.0" encoding="utf-8"?>
<svg xmlns="http://www.w3.org/2000/svg"
	xmlns:xlink="http://www.w3.org/1999/xlink"
	width="136px" height="200px" viewBox="0 0 68 100">
<clipPath id="clip0"><path fillRule="evenodd" d="M-2 102C-2 102-2-2-2-2-2-2 70-2 70-2 70-2 70 102 70 102 70 102-2 102-2 102ZM 66 33.3C 66 16.01 51.67 2 34 2 16.33 2 2 16.01 2 33.3 2 33.3 2 66.7 2 66.7 2 83.98 16.33 98 34 98 51.67 98 66 83.98 66 66.7 66 66.7 66 33.3 66 33.3Z"/></clipPath><g><path fillRule="evenodd" d="M 34 2C 51.67 2 66 16.01 66 33.3 66 33.3 66 66.7 66 66.7 66 83.98 51.67 98 34 98 16.33 98 2 83.98 2 66.7 2 66.7 2 33.3 2 33.3 2 16.01 16.33 2 34 2Z" fill="none" stroke="rgb(61,131,217)" stroke-width="2.00px" clip-path="url(#clip0)"/><path fillRule="evenodd" d="M 34 14.02C 36.77 14.02 39.01 16.37 39.01 19.26 39.01 19.26 39.01 29.76 39.01 29.76 39.01 32.66 36.77 35.01 34 35.01 31.24 35.01 28.99 32.66 28.99 29.76 28.99 29.76 28.99 19.26 28.99 19.26 28.99 16.37 31.24 14.02 34 14.02Z" fill="rgb(61,131,217)"/><path fillRule="evenodd" d="M 41.66 57.97C 41.66 57.97 36.89 62.68 36.89 62.68 36.45 63.12 35.74 63.12 35.3 62.68 35.22 62.6 35.16 62.5 35.11 62.4 35.11 62.4 35.11 62.88 35.11 62.88 35.11 63.49 34.61 63.99 33.99 63.99 33.36 63.99 32.86 63.49 32.86 62.88 32.86 62.88 32.86 62.4 32.86 62.4 32.81 62.5 32.75 62.6 32.67 62.68 32.23 63.12 31.52 63.12 31.08 62.68 31.08 62.68 26.31 57.97 26.31 57.97 25.88 57.54 25.88 56.83 26.31 56.4 26.75 55.97 27.46 55.97 27.9 56.4 27.9 56.4 32.67 61.11 32.67 61.11 32.75 61.2 32.81 61.3 32.86 61.4 32.86 61.4 32.86 45.1 32.86 45.1 32.86 44.49 33.36 43.99 33.99 43.99 34.61 43.99 35.11 44.49 35.11 45.1 35.11 45.1 35.11 61.4 35.11 61.4 35.16 61.3 35.22 61.2 35.3 61.11 35.3 61.11 40.07 56.4 40.07 56.4 40.51 55.97 41.22 55.97 41.66 56.4 42.09 56.83 42.09 57.54 41.66 57.97Z" fill="rgb(61,131,217)"/></g></svg>